PathFileType	4	(X/Y/Z)	38_2_10_p0_0-356.trc
DataRate	CameraRate	NumFrames	NumMarkers	Units	OrigDataRate	OrigDataStartFrame	OrigNumFrames
60.0	60.0	6	27	m	60.0	89	357
Frame#	Time	RHip			RKnee			RAnkle			RBigToe			RSmallToe			RHeel			LHip			LKnee			LAnkle			LBigToe			LSmallToe			LHeel			Neck			Head			Nose			RShoulder			RElbow			RWrist			RThumb			RIndex			RPinky			LShoulder			LElbow			LWrist			LThumb			LIndex			LPinky			
		X1	Y1	Z1	X2	Y2	Z2	X3	Y3	Z3	X4	Y4	Z4	X5	Y5	Z5	X6	Y6	Z6	X7	Y7	Z7	X8	Y8	Z8	X9	Y9	Z9	X10	Y10	Z10	X11	Y11	Z11	X12	Y12	Z12	X13	Y13	Z13	X14	Y14	Z14	X15	Y15	Z15	X16	Y16	Z16	X17	Y17	Z17	X18	Y18	Z18	X19	Y19	Z19	X20	Y20	Z20	X21	Y21	Z21	X22	Y22	Z22	X23	Y23	Z23	X24	Y24	Z24	X25	Y25	Z25	X26	Y26	Z26	X27	Y27	Z27	
89	1.4833333333333334	0.3991729011650397	0.6987819263003221	0.5411600108669153	0.40048489341822996	0.8938304596257906	0.9639547430161647	0.36995338206024586	1.041534625019028	1.3651215494210753	0.30662663356562153	0.8610387793924038	1.4286875279021536	0.37921475125105897	0.8869826681009693	1.4335889763319154	0.3475607555086344	1.1484612732076718	1.4118542939906573	0.1810741700744916	0.7301595628001493	0.528198719108101	0.17685339760975974	0.9284000018368849	0.9565367229584233	0.18103708854815234	1.0500217156936145	1.3258452981537805	0.17182802589492957	0.8995354383914387	1.417587580980704	0.1176047359819509	0.9528155195195779	1.4129224903386806	0.2059652649526057	1.1542787151245506	1.4056026970460596	0.2871388957708034	0.5657032549430445	-0.0647333256933196	0.2892423101745513	0.3858935100130564	-0.304133056557461	0.2787804233194956	0.3833858048252358	-0.11555927179572832	0.4679784995931342	0.6082444779517109	0.006471738482003321	0.6562289975980937	0.7897616508945906	0.18223506993948235	0.6155543269906066	0.6317955719854406	0.4217861959034764	0.5513797816779555	0.5755634036437577	0.5081847779665057	0.5567782479403425	0.557433956209405	0.5373225750434341	0.5550043925021596	0.5738224173544911	0.5487577215516358	0.1155144280677306	0.6441728418504814	-0.010681089033498471	0.0026294620255739253	0.8753742266004098	0.1657900481114677	-0.059702707427957864	0.7839680614790292	0.3697879950288221	-0.03737808498963567	0.6866643072441188	0.4556414375947461	-0.08970248460289547	0.6846469052532664	0.49742779684256433	-0.06764797707752379	0.7914431240944035	0.5106832617517256
90	1.5	0.3991670088853558	0.6989041043201658	0.5409415033665385	0.4005074456802198	0.8940612421236475	0.9641836057042155	0.36875045158538283	1.0383926126807035	1.360161011777252	0.3120161870945663	0.8743224942059341	1.4328111429265944	0.37960504422547414	0.8877459524042361	1.4336843757804754	0.34637689671517563	1.1449273112059946	1.4066772937715017	0.18064479079560183	0.727733852252748	0.5275983807618706	0.17679944779244275	0.928335028920991	0.9565924401358219	0.18115554873042145	1.0490597365990284	1.329690612586009	0.17176264636406244	0.8992890931499056	1.4174346215954146	0.12081468922646095	0.9354899557329518	1.4076270998636669	0.20631117235936489	1.154485429180799	1.405458007771762	0.28702619625464215	0.5655074633259888	-0.06810668331234337	0.2892415253176385	0.3858717255300208	-0.30409289132112066	0.2744294951833529	0.37281270697114416	-0.11333715561450025	0.4679755673852803	0.6082063632449423	0.006495652720840597	0.6568641780010541	0.7736483758986155	0.18340944744237317	0.6150461854635109	0.6299510960931896	0.4179117635053331	0.5512158247536849	0.5590555826894887	0.5041192007494857	0.5560248738344212	0.5550535237515162	0.5339149254459696	0.5562007352946551	0.5599392394970573	0.5487568546227415	0.11997638053565139	0.6555875165527162	-0.016008907118670087	0.0019093782674463192	0.8749975240227204	0.16547957165890306	-0.05957986607828581	0.7828276531273778	0.3664167730051275	-0.04034202802812218	0.6774205380545254	0.4594760084785552	-0.09529792954032335	0.6832292193548776	0.4969795756474847	-0.06790769589158198	0.7905537382246814	0.5070043557513497
91	1.5166666666666666	0.3984460481160571	0.6967789532686168	0.5367346656645409	0.40049221406607877	0.8940817097438147	0.9641627919844551	0.3687427166220034	1.0383329202149176	1.3601797704186123	0.3066923105713817	0.8612141328933088	1.4286702739007462	0.37937916264193966	0.8876404678656131	1.4337554102158938	0.34752848223087285	1.1482921949235245	1.4118352392919178	0.18058645494420614	0.7276976415536	0.5274071922962166	0.17225167450386297	0.9275455018769532	0.9563085777754958	0.1810809220398246	1.0489061152809902	1.3295881541884007	0.1716894628710067	0.8994247613139854	1.4174257702153967	0.11844529650381808	0.9505478843997816	1.4085565718842865	0.2062350951713615	1.1547046325275845	1.4058004162080946	0.2871073027577951	0.565635428093566	-0.06795358200481365	0.2892251880415932	0.38589487247254084	-0.3040449552782369	0.2744148334527197	0.3729227815580715	-0.11332590330237875	0.4679322144603261	0.6082038748840982	0.006503747357195865	0.6570913277446088	0.7735545885393283	0.18361472492522984	0.6209079660596	0.6174662731194244	0.4182619183171968	0.5506802354421152	0.5728304608357724	0.5010632784702316	0.5604210290741612	0.5543242929467123	0.5302342084008683	0.559829161475263	0.5605398071797169	0.5529567781514605	0.1157824750472292	0.6434386230189675	-0.01417628766840959	-0.002596244138550154	0.8736600569814361	0.165138308093197	-0.0599210391989546	0.7824278995715943	0.3622088001948188	-0.04398234369833132	0.6907077529333662	0.4592499333723816	-0.10397501418146132	0.6960307304486669	0.49712538851754096	-0.0681589323585913	0.7912886873174131	0.5066458327296429
92	1.5333333333333334	0.39855335511408163	0.6969367094699254	0.536814985401207	0.4004639554782532	0.8944878269301073	0.9645595466141071	0.36660596936098655	1.0582531533511816	1.3653640774535871	0.3157975625231219	0.8748848266178715	1.4296024852198088	0.37744436146606897	0.9051877437467867	1.435095125494641	0.35201726849559756	1.1613595130314482	1.4113925332160728	0.18379404045308056	0.7134224373231358	0.527569879156529	0.176670688479566	0.9282137933013621	0.9566420105906337	0.18115374196158984	1.0489861467054515	1.3296237649061797	0.17185885460002123	0.8996317594960066	1.4173127649947834	0.12073056025477867	0.9357945221631039	1.4076186019563122	0.20636257338217476	1.1551343749944745	1.4060774327303827	0.28703006969709827	0.5656359802028319	-0.06804127052239856	0.2915987326878137	0.3745857732164812	-0.30103522243717745	0.27876644127359057	0.3833915576957746	-0.11553664806520735	0.4679044279263371	0.6083371626400282	0.006428520605876866	0.6572487204245543	0.7734118818987313	0.18364847294690723	0.6272741424092857	0.6282582638961525	0.4215035346685394	0.5498871698493958	0.5563431773533185	0.49968036785251374	0.5605449720093865	0.5543092469300148	0.5301045816152823	0.5599011107773385	0.5601823596681731	0.5531927995236638	0.12006111777530525	0.6554445655833361	-0.016030148576385378	-0.002705708105020417	0.8731244382435518	0.16504587784899327	-0.06042072679043148	0.7822581748804728	0.3660702755131165	-0.04874211973927592	0.6890727773200079	0.45964689748916754	-0.09997108222848915	0.6824356410692392	0.5005337200941008	-0.07200331656990973	0.778443164026405	0.5063149785070498
93	1.55	0.3994057020754448	0.6992922538476266	0.5409186403610546	0.4004316695822571	0.8944681050816307	0.9644122204931123	0.36656739603291544	1.0581732535885848	1.365380055630142	0.31095093487061165	0.8718165014385092	1.4284032119225916	0.37885667149015007	0.8859275416823015	1.429302441633629	0.35195413731530595	1.1613586703697654	1.4114311298807387	0.18460326285386702	0.7159081031962347	0.5317180358892086	0.1767807969242327	0.9282914855117188	0.9566669525865235	0.18105390973960617	1.048959253535751	1.329639247863498	0.17173660446224026	0.8994287950291749	1.4173095976137504	0.12081423896360345	0.9352039382807242	1.4073809457319608	0.20622906447569622	1.1546531490281249	1.4057641448418385	0.287073594521466	0.5657331630871901	-0.06802505507182713	0.2915986227133478	0.3745539715282776	-0.30085772216252	0.278762333843479	0.3833088953850361	-0.11549061136133566	0.4680724545016442	0.6080730566285569	0.0030418969607615962	0.657305232242452	0.7734324733010965	0.18357266920843232	0.6274167952395279	0.6282378371371462	0.42155724968194885	0.5515944290687702	0.5441635530307707	0.5032320283053459	0.5609879322110325	0.5411863716357166	0.5336894439530656	0.5605412114583719	0.5592620913288514	0.5493192741998695	0.11571627305183119	0.6435965824870158	-0.014198926714995133	-0.0029698773977291947	0.8724893744594021	0.1652570171918401	-0.06837021058961165	0.7672735567084764	0.366618373387716	-0.05190154943450777	0.6768266406731087	0.4593350804247601	-0.11130833259533923	0.6810390505887217	0.4969197492922114	-0.07218647231824236	0.7782861957801622	0.5027105590174555
94	1.5666666666666667	0.3994423713752383	0.6992026750448809	0.5407489173198399	0.40054731464482446	0.8938045460182946	0.9685479446569712	0.3665715407151969	1.0581538721287034	1.3654324353248133	0.3103892018928062	0.8615826473046627	1.4255070663077223	0.3796826433817129	0.8880747305629828	1.433778353237821	0.347478962117711	1.1487903194818085	1.4120068288645005	0.18391020139189115	0.7133529854090698	0.5275980254244119	0.17231252383055706	0.927344880153229	0.9563804055919098	0.18118363138699084	1.0490561423933373	1.329677272689105	0.16732172877279722	0.8845078668017872	1.4127753238256686	0.12077742008340425	0.9355896061924126	1.4076063280878848	0.20654589371688387	1.1547895074629582	1.4055460070148873	0.28718996323519846	0.56605440816476	-0.06461104681687765	0.29159439893883193	0.37467609261913776	-0.3007759005339916	0.2787760058697749	0.3834666409269386	-0.11546233674117756	0.46796678280359116	0.6085872178497207	0.0064045723478257524	0.6573382408044922	0.77328567569705	0.18356682919404296	0.6274788344989288	0.6283326202494474	0.41790207360469334	0.5514834855915577	0.5441439590525087	0.4997749730473089	0.5619326252109087	0.5427782688158292	0.5375289713801124	0.5665277129235194	0.5703831907852955	0.5494456616144588	0.1158524662083969	0.6534626598854651	-0.0157893407556468	-0.0033997200458675833	0.8719349728762043	0.16513312990672155	-0.06860238814422982	0.7672225716034989	0.36661554796614193	-0.05171368391849252	0.6792529581005282	0.46270225657035197	-0.11201294077671321	0.6809946728689593	0.49730580538246194	-0.07680140012279253	0.766242689995607	0.5063631092293386
